#!OML:ASF Y:\EmotionMaleHayes\Project 1\Capture day 1\Session 1\Male1.ASF
:FULLY-SPECIFIED
:DEGREES
169
root -4.86687 16.7858 1.91665 176.107 39.2137 168.372
lowerback 16.8193 2.86141 -2.7727
upperback 4.91295 3.75329 -0.331185
thorax -4.30291 2.05316 0.443434
lowerneck -15.666 -12.6124 -6.7418
upperneck 12.3809 -16.5016 5.74482
head 7.37428 -7.7538 0.998912
rclavicle 4.05521e-014 -4.6118e-014
rhumerus -29.1579 37.5718 -86.8615
rradius 74.4427
rwrist -23.7082
rhand -24.2779 -30.9254
rfingers 7.12502
rthumb 2.20896 -60.8937
lclavicle 4.05521e-014 -4.6118e-014
lhumerus -54.3367 -14.2528 91.5106
lradius 79.4606
lwrist 23.7696
lhand -15.4299 -20.6093
lfingers 7.12502
lthumb 10.7501 9.09562
rfemur -14.0109 -14.168 3.01091
rtibia 59.4791
rfoot -18.1815 -15.8007
rtoes 21.223
lfemur -5.5536 -2.28105 -28.0204
ltibia 23.8951
lfoot -16.2292 -0.0628466
ltoes -4.33883
170
root -4.66142 16.9381 1.89925 175.41 37.3713 166.044
lowerback 16.5106 2.80099 -4.31108
upperback 4.83489 3.42003 -0.68597
thorax -4.26653 1.89731 1.01443
lowerneck -15.595 -12.9223 -6.95405
upperneck 12.2779 -16.8806 5.78625
head 7.37279 -7.94524 0.995247
rclavicle 8.54774e-014 9.54166e-015
rhumerus -30.1246 36.9494 -86.6919
rradius 71.7966
rwrist -23.1572
rhand -23.7931 -31.0791
rfingers 7.12502
rthumb 2.67717 -61.0421
lclavicle 8.54774e-014 9.54166e-015
lhumerus -54.3799 -15.6445 91.7097
lradius 82.8263
lwrist 22.0557
lhand -15.0842 -21.2244
lfingers 7.12502
lthumb 11.0835 8.46289
rfemur -14.5692 -14.164 0.00700283
rtibia 57.4934
rfoot -17.781 -14.6489
rtoes 19.5132
lfemur -4.62201 -2.98094 -29.7815
ltibia 21.6797
lfoot -13.9773 -1.53146
ltoes -3.80928
171
root -4.44794 17.0816 1.89918 175.439 35.9813 165.415
lowerback 16.6252 2.78865 -4.78
upperback 4.84037 3.33485 -0.586935
thorax -4.34537 1.86149 1.39378
lowerneck -15.552 -13.2718 -7.38477
upperneck 12.2572 -17.2925 5.96432
head 7.43846 -8.1465 1.05213
rclavicle -6.16232e-014 1.59028e-015
rhumerus -31.1651 37.1953 -86.2846
rradius 69.5432
rwrist -22.9454
rhand -22.3032 -31.5147
rfingers 7.12502
rthumb 4.11595 -61.4547
lclavicle -6.16232e-014 1.59028e-015
lhumerus -54.3864 -17.0562 91.8692
lradius 86.1282
lwrist 20.4319
lhand -15.1632 -21.68
lfingers 7.12502
lthumb 11.0073 8.01144
rfemur -15.0357 -13.3957 -1.12862
rtibia 55.6785
rfoot -17.7917 -14.055
rtoes 18.2189
lfemur -3.47606 -2.91062 -29.6161
ltibia 19.4758
lfoot -11.5601 -3.15266
ltoes -2.59605
172
root -4.22623 17.2096 1.90573 176.179 34.6898 166.19
lowerback 16.8007 2.67215 -4.26475
upperback 4.91868 3.2916 -0.101937
thorax -4.35709 1.83971 1.61962
lowerneck -15.677 -13.6172 -7.89018
upperneck 12.2649 -17.6803 6.18167
head 7.55275 -8.33021 1.12067
rclavicle -3.65764e-014 -1.43125e-014
rhumerus -32.1341 37.0837 -86.0116
rradius 67.4765
rwrist -22.4185
rhand -25.6026 -30.5951
rfingers 7.12502
rthumb 0.929574 -60.5728
lclavicle -3.65764e-014 -1.43125e-014
lhumerus -54.2609 -18.2715 91.8874
lradius 89.239
lwrist 18.6695
lhand -15.4509 -22.0605
lfingers 7.12502
lthumb 10.7299 7.64553
rfemur -15.332 -12.4054 -0.84606
rtibia 53.6559
rfoot -17.3583 -14.0868
rtoes 17.2246
lfemur -2.36768 -2.49833 -27.9059
ltibia 17.3975
lfoot -8.99149 -4.62386
ltoes -3.39347
173
root -3.99397 17.34 1.91003 176.777 32.9811 166.601
lowerback 16.8474 2.44671 -3.99086
upperback 4.99695 3.0748 0.302944
thorax -4.29518 1.73523 1.93867
lowerneck -15.7215 -13.9376 -8.25776
upperneck 12.1288 -18.0379 6.2736
head 7.58115 -8.51061 1.1456
rclavicle 6.52014e-014 2.38542e-014
rhumerus -33.0747 36.8046 -85.9381
rradius 65.6396
rwrist -22.1594
rhand -25.7914 -31.3187
rfingers 7.12502
rthumb 0.74724 -61.2971
lclavicle 6.52014e-014 2.38542e-014
lhumerus -54.0853 -19.4356 91.7712
lradius 92.2041
lwrist 17.1397
lhand -15.748 -22.6724
lfingers 7.12502
lthumb 10.4432 7.04824
rfemur -15.3221 -11.9102 -1.12737
rtibia 51.348
rfoot -16.6836 -13.8462
rtoes 17.6682
lfemur -1.52325 -2.12708 -26.5276
ltibia 15.6433
lfoot -6.11903 -6.34782
ltoes -2.59815
174
root -3.76061 17.4708 1.91939 177.219 31.1244 166.189
lowerback 16.6356 2.21782 -4.36804
upperback 5.00788 2.73755 0.488173
thorax -4.17156 1.57025 2.42589
lowerneck -15.7133 -14.2314 -8.57325
upperneck 11.9724 -18.3704 6.35113
head 7.58747 -8.67975 1.16612
rclavicle 4.21423e-014 -1.43125e-014
rhumerus -33.8647 36.4803 -85.953
rradius 63.9851
rwrist -22.3498
rhand -25.5141 -32.112
rfingers 7.12502
rthumb 1.01505 -62.0893
lclavicle 4.21423e-014 -1.43125e-014
lhumerus -53.872 -20.5704 91.4451
lradius 95.1308
lwrist 16.2095
lhand -16.1539 -23.5181
lfingers 7.12502
lthumb 10.0517 6.22186
rfemur -15.5449 -11.6006 -2.24039
rtibia 49.1773
rfoot -16.3261 -13.5137
rtoes 19.0041
lfemur -1.26688 -1.75705 -25.9183
ltibia 14.2353
lfoot -2.89333 -7.90129
ltoes 0.530113
175
root -3.52892 17.5936 1.93282 177.666 29.3982 165.776
lowerback 16.467 2.03104 -4.70098
upperback 5.04045 2.46484 0.658212
thorax -4.04395 1.43703 2.85635
lowerneck -15.8243 -14.5287 -8.94121
upperneck 11.8998 -18.6979 6.46361
head 7.65055 -8.83945 1.19257
rclavicle 1.03368e-014 4.77083e-015
rhumerus -34.5514 36.0199 -85.8385
rradius 62.6419
rwrist -22.7129
rhand -25.5104 -32.4639
rfingers 7.12502
rthumb 1.01866 -62.4412
lclavicle 1.03368e-014 4.77083e-015
lhumerus -53.5386 -21.6784 90.9439
lradius 97.9372
lwrist 15.7429
lhand -16.7089 -24.3585
lfingers 7.12502
lthumb 9.51619 5.40666
rfemur -15.8003 -11.1503 -3.34134
rtibia 47.1021
rfoot -15.9773 -13.5223
rtoes 18.3182
lfemur -1.12071 -1.36776 -25.3178
ltibia 12.8746
lfoot 0.577667 -9.0751
ltoes 3.79479
176
root -3.3033 17.706 1.94733 178.18 27.6602 165.698
lowerback 16.5454 1.83201 -4.51268
upperback 5.02095 2.24651 0.823265
thorax -4.08847 1.33371 2.96626
lowerneck -15.8402 -14.8099 -9.23047
upperneck 11.7837 -19.0354 6.62789
head 7.68385 -8.9993 1.22984
rclavicle 4.77083e-015 6.20208e-014
rhumerus -35.5168 35.5591 -85.819
rradius 61.6268
rwrist -23.0735
rhand -25.6175 -32.7888
rfingers 7.12502
rthumb 0.91517 -62.7665
lclavicle 4.77083e-015 6.20208e-014
lhumerus -53.2613 -22.8656 90.2459
lradius 100.665
lwrist 15.5416
lhand -17.3065 -25.6239
lfingers 7.12502
lthumb 8.93958 4.1667
rfemur -15.8539 -10.6962 -4.17421
rtibia 44.9872
rfoot -15.4708 -13.4915
rtoes 15.4123
lfemur -0.921412 -0.738256 -24.3813
ltibia 11.4731
lfoot 4.62394 -10.3155
ltoes 8.81875
177
root -3.07862 17.8088 1.9641 178.845 25.8421 166.024
lowerback 16.7569 1.58132 -3.74894
upperback 4.93961 2.04416 0.952731
thorax -4.25531 1.23899 2.70468
lowerneck -15.7499 -15.0827 -9.38148
upperneck 11.6838 -19.422 6.89195
head 7.70812 -9.17043 1.27793
rclavicle -4.77083e-014 -3.02153e-014
rhumerus -36.6542 35.0337 -86.1047
rradius 60.6675
rwrist -23.2312
rhand -25.6324 -32.9217
rfingers 7.12502
rthumb 0.900795 -62.8995
lclavicle -4.77083e-014 -3.02153e-014
lhumerus -52.9995 -24.2688 89.1903
lradius 103.326
lwrist 15.6029
lhand -18.1408 -27.1532
lfingers 7.12502
lthumb 8.13443 2.67021
rfemur -15.6896 -10.015 -4.60119
rtibia 42.654
rfoot -14.9242 -13.3436
rtoes 13.6466
lfemur -0.806205 0.263188 -22.9217
ltibia 10.1401
lfoot 8.70023 -10.8051
ltoes 12.6664
178
root -2.84663 17.9044 1.97618 179.505 24.0667 166.257
lowerback 16.7707 1.31888 -3.11004
upperback 4.89861 1.81724 1.07093
thorax -4.27819 1.12918 2.51271
lowerneck -15.6644 -15.2881 -9.6637
upperneck 11.5857 -19.712 7.29013
head 7.75632 -9.2888 1.39617
rclavicle 4.37326e-014 -4.92986e-014
rhumerus -37.6501 34.7756 -86.288
rradius 59.9393
rwrist -23.3318
rhand -25.1101 -32.8353
rfingers 7.12502
rthumb 1.40528 -62.8104
lclavicle 4.37326e-014 -4.92986e-014
lhumerus -52.522 -25.5529 87.8003
lradius 105.836
lwrist 15.8618
lhand -19.3652 -28.5525
lfingers 7.12502
lthumb 6.95259 1.31334
rfemur -15.5019 -9.07467 -5.1069
rtibia 40.239
rfoot -14.3567 -13.1687
rtoes 13.326
lfemur -0.757623 1.26322 -21.508
ltibia 8.79187
lfoot 12.3476 -10.1372
ltoes 15.4028
179
root -2.6134 17.9886 1.9827 180.068 22.3584 166.175
lowerback 16.6473 1.06639 -2.8359
upperback 4.87333 1.54783 1.22248
thorax -4.21975 0.997588 2.57424
lowerneck -15.7736 -15.3915 -9.97866
upperneck 11.5792 -19.8136 7.52065
head 7.83755 -9.32542 1.4804
rclavicle 6.91771e-014 6.36111e-014
rhumerus -38.6869 35.2003 -86.1215
rradius 59.8599
rwrist -24.0386
rhand -24.9673 -33.1847
rfingers 7.12502
rthumb 1.54319 -63.1589
lclavicle 6.91771e-014 6.36111e-014
lhumerus -51.9565 -26.3142 86.4492
lradius 108.138
lwrist 16.1871
lhand -20.6911 -30.1915
lfingers 7.12502
lthumb 5.67262 -0.287417
rfemur -15.3581 -8.10333 -5.95413
rtibia 37.9855
rfoot -13.7943 -12.9752
rtoes 12.0491
lfemur -0.720305 2.0779 -20.4607
ltibia 7.39369
lfoot 15.942 -9.13027
ltoes 19.7854
180
root -2.38234 18.0596 1.98612 180.578 20.6229 165.945
lowerback 16.5156 0.819988 -2.58014
upperback 4.83 1.2788 1.3396
thorax -4.17631 0.865884 2.60839
lowerneck -15.9986 -15.4215 -10.1716
upperneck 11.6371 -19.794 7.52859
head 7.91202 -9.31422 1.49182
rclavicle -1.66979e-014 -2.8625e-014
rhumerus -39.6574 34.7797 -86.4622
rradius 59.5373
rwrist -24.2663
rhand -25.5584 -33.4871
rfingers 7.12502
rthumb 0.972252 -63.4646
lclavicle -1.66979e-014 -2.8625e-014
lhumerus -51.4374 -26.8773 85.2395
lradius 110.254
lwrist 16.5415
lhand -22.3385 -32.1954
lfingers 7.12502
lthumb 4.08192 -2.2548
rfemur -15.1365 -7.20451 -7.00686
rtibia 35.875
rfoot -13.2603 -12.6929
rtoes 10.9759
lfemur -0.759657 3.08399 -19.6188
ltibia 6.08837
lfoot 19.1564 -8.53612
ltoes 22.0247
181
root -2.15333 18.1235 1.99084 181.306 18.9241 165.966
lowerback 16.2727 0.547043 -1.9857
upperback 4.75043 1.02411 1.45995
thorax -4.11032 0.737687 2.45023
lowerneck -16.1537 -15.3327 -10.2516
upperneck 11.568 -19.6401 7.56458
head 7.91351 -9.23801 1.52954
rclavicle -1.51076e-014 2.8625e-014
rhumerus -40.6298 34.6411 -86.8139
rradius 59.5756
rwrist -24.6996
rhand -26.1486 -33.7347
rfingers 7.12502
rthumb 0.40223 -63.714
lclavicle -1.51076e-014 2.8625e-014
lhumerus -50.862 -27.4541 83.7402
lradius 112.294
lwrist 17.254
lhand -24.2772 -34.6605
lfingers 7.12502
lthumb 2.20965 -4.69224
rfemur -15.0823 -6.26344 -7.79175
rtibia 33.8728
rfoot -12.5909 -12.3172
rtoes 10.7897
lfemur -1.08503 4.24858 -18.5446
ltibia 5.05829
lfoot 21.5101 -8.25866
ltoes 21.2874
182
root -1.93215 18.1783 2.0002 182.155 17.3377 166.177
lowerback 15.9892 0.311693 -1.20113
upperback 4.66328 0.851005 1.66922
thorax -4.03754 0.649094 2.26081
lowerneck -16.5573 -15.2787 -10.1001
upperneck 11.6928 -19.5245 7.32137
head 7.96898 -9.18308 1.42401
rclavicle 4.6118e-014 4.6118e-014
rhumerus -41.4653 34.6059 -86.854
rradius 59.7928
rwrist -24.7275
rhand -26.4738 -34.2182
rfingers 7.12502
rthumb 0.0880896 -64.1979
lclavicle 4.6118e-014 4.6118e-014
lhumerus -50.1017 -27.8748 82.0586
lradius 114.092
lwrist 18.2464
lhand -25.9284 -37.6958
lfingers 7.12502
lthumb 0.614886 -7.71698
rfemur -15.1805 -4.83054 -8.39169
rtibia 31.8384
rfoot -12.1541 -11.8541
rtoes 12.0261
lfemur -1.63869 4.98782 -17.3511
ltibia 4.41473
lfoot 22.6084 -7.75269
ltoes 21.5734
183
root -1.6898 18.2177 2.00676 182.574 16.0003 166.089
lowerback 15.8876 0.268248 -1.10033
upperback 4.69417 0.839338 1.93566
thorax -3.95272 0.648239 2.48765
lowerneck -17.0007 -15.4338 -10.4585
upperneck 12.0783 -19.6233 7.27687
head 8.20917 -9.22438 1.39373
rclavicle -2.38542e-014 2.22639e-014
rhumerus -42.0338 34.3548 -86.6455
rradius 59.8153
rwrist -24.4136
rhand -26.2626 -34.1191
rfingers 7.12502
rthumb 0.292142 -64.0986
lclavicle -2.38542e-014 2.22639e-014
lhumerus -49.2372 -28.0492 80.4307
lradius 115.59
lwrist 19.1277
lhand -27.381 -40.7446
lfingers 7.12502
lthumb -0.788027 -10.7663
rfemur -14.7829 -2.20954 -9.18995
rtibia 29.4683
rfoot -12.0848 -11.6291
rtoes 13.8972
lfemur -1.81673 5.79193 -16.392
ltibia 4.12287
lfoot 21.4532 -6.7031
ltoes 19.2512
